<svg xmlns="http://www.w3.org/2000/svg" width="512" height="512" viewBox="0 0 424.932 424.933">
    <path d="M329.626 134.455c-3.111 0-6.291.178-9.614.547-18.304-23.869-46.642-37.716-77.057-37.333-13.642-37.163-49.289-62.454-89.388-62.454-52.553 0-95.306 42.752-95.306 95.305 0 3.705.219 7.426.662 11.142C23.343 156.249 0 190.633 0 229.771c0 52.553 42.753 95.305 95.305 95.305h234.316c52.556 0 95.312-42.752 95.312-95.305-.001-52.553-42.753-95.316-95.307-95.316zm0 170.501H95.311c-41.453 0-75.185-33.734-75.185-75.19 0-33.22 21.315-62.102 53.048-71.861l8.785-2.706-1.91-8.996a75.498 75.498 0 0 1-1.667-15.683c0-41.453 33.733-75.185 75.185-75.185 33.807 0 63.609 22.804 72.485 55.456l2.227 8.232 8.486-.859a77.216 77.216 0 0 1 7.614-.38c25.204 0 48.616 12.556 62.619 33.598l3.623 5.429 6.424-1.075c4.565-.775 8.679-1.149 12.58-1.149 41.461 0 75.19 33.732 75.19 75.191.002 41.462-33.728 75.178-75.189 75.178zm-86.982 63.273h64.33v16.368h-64.33v5.121h-71.228v-5.121H92.118v-16.368h79.292v-8.186h20.784V339.49l29.663-.006v20.559h20.782v8.186h.005z" fill="#FFF"/>
</svg>
