<svg xmlns="http://www.w3.org/2000/svg" viewBox="0 0 470 470" width="512" height="512">
    <g fill="#FFF">
        <path d="M432.5 115.005a7.5 7.5 0 0 0 7.5-7.5V75h22.5a7.5 7.5 0 0 0 7.5-7.5v-60a7.5 7.5 0 0 0-7.5-7.5h-60a7.5 7.5 0 0 0-7.5 7.5V30H75V7.5A7.5 7.5 0 0 0 67.5 0h-60A7.5 7.5 0 0 0 0 7.5v60A7.5 7.5 0 0 0 7.5 75H30v320H7.5a7.5 7.5 0 0 0-7.5 7.5v60a7.5 7.5 0 0 0 7.5 7.5h60a7.5 7.5 0 0 0 7.5-7.5V440h320v22.5a7.5 7.5 0 0 0 7.5 7.5h60a7.5 7.5 0 0 0 7.5-7.5v-60a7.5 7.5 0 0 0-7.5-7.5H440V137.505c0-4.143-3.358-7.5-7.5-7.5s-7.5 3.357-7.5 7.5V395h-22.5a7.5 7.5 0 0 0-7.5 7.5V425H75v-22.5a7.5 7.5 0 0 0-7.5-7.5H45V75h22.5a7.5 7.5 0 0 0 7.5-7.5V45h320v22.5a7.5 7.5 0 0 0 7.5 7.5H425v32.505a7.5 7.5 0 0 0 7.5 7.5zM410 410h45v45h-45v-45zM60 455H15v-45h45v45zm0-395H15V15h45v45zm350-45h45v45h-45V15z"/>
        <path d="M370 107.505a7.5 7.5 0 0 0-7.5-7.5h-255a7.5 7.5 0 0 0-7.5 7.5v127.494a7.5 7.5 0 0 0 7.5 7.5h255a7.5 7.5 0 0 0 7.5-7.5V107.505zM115 119.64l103.229 51.612L115 222.864V119.64zm24.271-4.635h191.457L235 162.867l-95.729-47.862zM235 179.637l95.729 47.862H139.271L235 179.637zm16.771-8.385L355 119.64v103.225l-103.229-51.613zM220 355H107.5c-4.142 0-7.5 3.357-7.5 7.5s3.358 7.5 7.5 7.5H220c4.142 0 7.5-3.357 7.5-7.5s-3.358-7.5-7.5-7.5zM362.5 355H250c-4.142 0-7.5 3.357-7.5 7.5s3.358 7.5 7.5 7.5h112.5c4.142 0 7.5-3.357 7.5-7.5s-3.358-7.5-7.5-7.5zM220 323.125H107.5c-4.142 0-7.5 3.357-7.5 7.5s3.358 7.5 7.5 7.5H220c4.142 0 7.5-3.357 7.5-7.5s-3.358-7.5-7.5-7.5zM362.5 323.125H250c-4.142 0-7.5 3.357-7.5 7.5s3.358 7.5 7.5 7.5h112.5c4.142 0 7.5-3.357 7.5-7.5s-3.358-7.5-7.5-7.5zM220 291.25H107.5c-4.142 0-7.5 3.357-7.5 7.5s3.358 7.5 7.5 7.5H220c4.142 0 7.5-3.357 7.5-7.5s-3.358-7.5-7.5-7.5zM362.5 291.25H250c-4.142 0-7.5 3.357-7.5 7.5s3.358 7.5 7.5 7.5h112.5c4.142 0 7.5-3.357 7.5-7.5s-3.358-7.5-7.5-7.5zM362.5 259.374h-255c-4.142 0-7.5 3.357-7.5 7.5s3.358 7.5 7.5 7.5h255c4.142 0 7.5-3.357 7.5-7.5s-3.358-7.5-7.5-7.5z"/>
    </g>
</svg>
