<svg xmlns="http://www.w3.org/2000/svg" viewBox="0 0 470 470" width="100%" height="100%">
    <g fill="#FFF">
        <path d="M462.5 22.5H7.5A7.5 7.5 0 0 0 0 30v410a7.5 7.5 0 0 0 7.5 7.5h455a7.5 7.5 0 0 0 7.5-7.5v-80c0-4.143-3.358-7.5-7.5-7.5s-7.5 3.357-7.5 7.5v72.5H15v-335h440V330c0 4.143 3.358 7.5 7.5 7.5s7.5-3.357 7.5-7.5V30a7.5 7.5 0 0 0-7.5-7.5zM15 37.5h277.5v45H15v-45zm292.5 45v-45H455v45H307.5z"/>
        <path d="M381.5 52c-4.411 0-8 3.589-8 8s3.589 8 8 8 8-3.589 8-8-3.589-8-8-8zM340.5 52c-4.411 0-8 3.589-8 8s3.589 8 8 8 8-3.589 8-8-3.589-8-8-8zM422.5 52c-4.411 0-8 3.589-8 8s3.589 8 8 8 8-3.589 8-8-3.589-8-8-8zM148.714 225.989a7.498 7.498 0 0 0 6.254-5.29l17.253-57.594a7.5 7.5 0 0 0-14.369-4.305l-12.374 41.306-11.928-19.908a7.499 7.499 0 0 0-12.868 0l-11.928 19.908-12.372-41.298a7.5 7.5 0 0 0-9.337-5.032 7.5 7.5 0 0 0-5.032 9.337l17.251 57.586a7.5 7.5 0 0 0 13.618 1.702l14.233-23.756 14.233 23.756a7.504 7.504 0 0 0 7.366 3.588zM206.358 225.982a7.5 7.5 0 0 0 7.364-3.588l14.233-23.756 14.233 23.756a7.5 7.5 0 0 0 13.618-1.702l17.253-57.594a7.5 7.5 0 0 0-14.369-4.305L246.316 200.1l-11.928-19.908a7.499 7.499 0 0 0-12.868 0L209.594 200.1l-12.372-41.299a7.498 7.498 0 0 0-9.337-5.032 7.5 7.5 0 0 0-5.032 9.337l17.251 57.587a7.501 7.501 0 0 0 6.254 5.289zM368.865 153.755a7.501 7.501 0 0 0-9.337 5.032l-12.374 41.305-11.928-19.908a7.499 7.499 0 0 0-12.868 0l-11.928 19.908-12.372-41.298a7.5 7.5 0 0 0-14.369 4.305l17.251 57.586a7.5 7.5 0 0 0 13.618 1.702l14.233-23.756 14.233 23.756a7.502 7.502 0 0 0 7.364 3.588 7.498 7.498 0 0 0 6.254-5.29l17.253-57.593a7.497 7.497 0 0 0-5.03-9.337zM136.7 268.547a7.5 7.5 0 0 0-7.5-7.5h-40a7.5 7.5 0 0 0-7.5 7.5v40a7.5 7.5 0 0 0 7.5 7.5h40a7.5 7.5 0 0 0 7.5-7.5v-40zm-15 32.5h-25v-25h25v25zM129.2 331.047h-40a7.5 7.5 0 0 0-7.5 7.5v40a7.5 7.5 0 0 0 7.5 7.5h40a7.5 7.5 0 0 0 7.5-7.5v-40a7.5 7.5 0 0 0-7.5-7.5zm-7.5 40h-25v-25h25v25zM366.712 281.047h-30c-4.142 0-7.5 3.357-7.5 7.5s3.358 7.5 7.5 7.5h30c4.142 0 7.5-3.357 7.5-7.5s-3.358-7.5-7.5-7.5zM306.712 281.047H159.2c-4.142 0-7.5 3.357-7.5 7.5s3.358 7.5 7.5 7.5h147.513a7.5 7.5 0 1 0-.001-15zM366.712 351.047h-30c-4.142 0-7.5 3.357-7.5 7.5s3.358 7.5 7.5 7.5h30c4.142 0 7.5-3.357 7.5-7.5s-3.358-7.5-7.5-7.5zM306.712 351.047H159.2c-4.142 0-7.5 3.357-7.5 7.5s3.358 7.5 7.5 7.5h147.513a7.5 7.5 0 1 0-.001-15z"/>
    </g>
</svg>
