<?xml version="1.0" encoding="UTF-8" standalone="no"?>
<!-- Generator: Gravit.io -->
<svg xmlns="http://www.w3.org/2000/svg" xmlns:xlink="http://www.w3.org/1999/xlink" style="isolation:isolate" viewBox="-456.5 64 2108 894"
  width="2108" height="894">
  <g>
    <g class="square_group">
      <g class="square3">
        <path d=" M 319.5 64 L 568.5 64 C 588.5 64 605.5 80 605.5 100 L 605.5 350 C 605.5 370 588.5 386 568.5 386 L 319.5 386 C 299.5 386 283.5 370 283.5 350 L 283.5 100 C 283.5 80 299.5 64 319.5 64 Z  M 328.5 75 L 560.5 75 C 578.5 75 594.5 90 594.5 109 L 594.5 341 C 594.5 360 578.5 375 560.5 375 L 328.5 375 C 309.5 375 294.5 360 294.5 341 L 294.5 109 C 294.5 90 309.5 75 328.5 75 Z "
          fill-rule="evenodd" fill="rgb(0,56,101)" />
        <path d=" M 292.5 89 L 541.5 89 C 561.5 89 578.5 105 578.5 125 L 578.5 374 C 578.5 394 561.5 411 541.5 411 L 292.5 411 C 272.5 411 256.5 394 256.5 374 L 256.5 125 C 256.5 105 272.5 89 292.5 89 Z  M 301.5 100 L 533.5 100 C 551.5 100 567.5 115 567.5 134 L 567.5 366 C 567.5 384 551.5 400 533.5 400 L 301.5 400 C 282.5 400 267.5 384 267.5 366 L 267.5 134 C 267.5 115 282.5 100 301.5 100 Z "
          fill-rule="evenodd" fill="rgb(208,2,27)" />
        <path d=" M 552.5 112 L 302.5 112 C 282.5 112 266.5 129 266.5 149 L 266.5 398 C 266.5 418 282.5 435 302.5 435 L 552.5 435 C 572.5 435 588.5 418 588.5 398 L 588.5 149 C 588.5 129 572.5 112 552.5 112 Z "
          fill-rule="evenodd" fill="rgb(0,0,0)" />
      </g>
      <g class="square2">
        <path d=" M -36.5 64 L 212.5 64 C 232.5 64 248.5 80 248.5 100 L 248.5 350 C 248.5 370 232.5 386 212.5 386 L -36.5 386 C -56.5 386 -73.5 370 -73.5 350 L -73.5 100 C -73.5 80 -56.5 64 -36.5 64 Z  M -28.5 75 L 203.5 75 C 222.5 75 237.5 90 237.5 109 L 237.5 341 C 237.5 360 222.5 375 203.5 375 L -28.5 375 C -46.5 375 -62.5 360 -62.5 341 L -62.5 109 C -62.5 90 -46.5 75 -28.5 75 Z "
          fill-rule="evenodd" fill="rgb(0,56,101)" />
        <path d=" M -63.5 89 L 185.5 89 C 205.5 89 221.5 105 221.5 125 L 221.5 374 C 221.5 394 205.5 411 185.5 411 L -63.5 411 C -83.5 411 -100.5 394 -100.5 374 L -100.5 125 C -100.5 105 -83.5 89 -63.5 89 Z  M -55.5 100 L 176.5 100 C 195.5 100 210.5 115 210.5 134 L 210.5 366 C 210.5 384 195.5 400 176.5 400 L -55.5 400 C -73.5 400 -89.5 384 -89.5 366 L -89.5 134 C -89.5 115 -73.5 100 -55.5 100 Z "
          fill-rule="evenodd" fill="rgb(208,2,27)" />
        <path d=" M 195.5 112 L -53.5 112 C -73.5 112 -89.5 129 -89.5 149 L -89.5 398 C -89.5 418 -73.5 435 -53.5 435 L 195.5 435 C 215.5 435 232.5 418 232.5 398 L 232.5 149 C 232.5 129 215.5 112 195.5 112 Z "
          fill-rule="evenodd" fill="rgb(0,0,0)" />
      </g>
      <g class="square1">
        <path d=" M -393.5 64 L -143.5 64 C -123.5 64 -107.5 80 -107.5 100 L -107.5 350 C -107.5 370 -123.5 386 -143.5 386 L -393.5 386 C -413.5 386 -429.5 370 -429.5 350 L -429.5 100 C -429.5 80 -413.5 64 -393.5 64 Z  M -384.5 75 L -152.5 75 C -133.5 75 -118.5 90 -118.5 109 L -118.5 341 C -118.5 360 -133.5 375 -152.5 375 L -384.5 375 C -403.5 375 -418.5 360 -418.5 341 L -418.5 109 C -418.5 90 -403.5 75 -384.5 75 Z "
          fill-rule="evenodd" fill="rgb(0,56,101)" />
        <path d=" M -420.5 89 L -170.5 89 C -150.5 89 -134.5 105 -134.5 125 L -134.5 374 C -134.5 394 -150.5 411 -170.5 411 L -420.5 411 C -440.5 411 -456.5 394 -456.5 374 L -456.5 125 C -456.5 105 -440.5 89 -420.5 89 Z  M -411.5 100 L -179.5 100 C -160.5 100 -145.5 115 -145.5 134 L -145.5 366 C -145.5 384 -160.5 400 -179.5 400 L -411.5 400 C -430.5 400 -445.5 384 -445.5 366 L -445.5 134 C -445.5 115 -430.5 100 -411.5 100 Z "
          fill-rule="evenodd" fill="rgb(208,2,27)" />
        <path d=" M -409.5 112 L -160.5 112 C -140.5 112 -124.5 129 -124.5 149 L -124.5 398 C -124.5 418 -140.5 435 -160.5 435 L -409.5 435 C -429.5 435 -446.5 418 -446.5 398 L -446.5 149 C -446.5 129 -429.5 112 -409.5 112 Z "
          fill-rule="evenodd" fill="rgb(0,0,0)" />
      </g>
    </g>
    <path class="logo_text" d=" M -219.5 951 L -251.5 951 L -251.5 721 L -414.5 721 L -414.5 951 L -446.5 951 L -446.5 482 L -414.5 482 L -414.5 690 L -251.5 690 L -251.5 482 L -219.5 482 L -219.5 951 Z  M -116.5 951 L -116.5 482 L -85.5 482 L -85.5 951 L -116.5 951 Z  M 171.5 715 L 274.5 715 L 274.5 937 C 238.5 951 201.5 958 162.5 958 C 111.5 958 72.5 937 43.5 894 C 15.5 851 1.5 792 1.5 716 C 1.5 639 16.5 580 45.5 538 C 74.5 496 115.5 476 168.5 476 C 203.5 476 237.5 486 268.5 506 L 253.5 533 C 224.5 515 195.5 505 168.5 505 C 124.5 505 91.5 523 68.5 559 C 46.5 595 34.5 648 34.5 716 C 34.5 783 46.5 835 69.5 872 C 91.5 909 124.5 928 165.5 928 C 195.5 928 221.5 924 242.5 916 L 242.5 745 L 171.5 745 L 171.5 715 Z  M 588.5 951 L 557.5 951 L 557.5 721 L 393.5 721 L 393.5 951 L 362.5 951 L 362.5 482 L 393.5 482 L 393.5 690 L 557.5 690 L 557.5 482 L 588.5 482 L 588.5 951 Z  M 691.5 951 L 691.5 482 L 722.5 482 L 722.5 921 L 854.5 921 L 854.5 951 L 691.5 951 Z  M 1097.5 951 L 1055.5 781 L 941.5 781 L 900.5 951 L 868.5 951 L 981.5 482 L 1013.5 482 L 1129.5 951 L 1097.5 951 Z  M 1048.5 750 L 1006.5 575 C 1002.5 555 999.5 536 996.5 519 C 994.5 537 991.5 556 987.5 575 L 947.5 750 L 1048.5 750 Z  M 1180.5 482 L 1270.5 482 C 1307.5 482 1335.5 492 1355.5 510 C 1375.5 529 1384.5 557 1384.5 594 C 1384.5 657 1361.5 694 1315.5 703 L 1315.5 706 C 1342.5 711 1361.5 723 1375.5 741 C 1388.5 760 1394.5 785 1394.5 818 C 1394.5 860 1385.5 893 1366.5 916 C 1348.5 940 1321.5 951 1288.5 951 L 1180.5 951 L 1180.5 482 Z  M 1211.5 691 L 1270.5 691 C 1300.5 691 1321.5 683 1333.5 667 C 1346.5 651 1352.5 626 1352.5 593 C 1352.5 567 1345.5 546 1331.5 532 C 1318.5 518 1297.5 511 1270.5 511 L 1211.5 511 L 1211.5 691 Z  M 1211.5 720 L 1211.5 922 L 1284.5 922 C 1335.5 922 1361.5 887 1361.5 817 C 1361.5 786 1354.5 762 1339.5 745 C 1323.5 728 1302.5 720 1275.5 720 L 1211.5 720 Z  M 1651.5 829 C 1651.5 867 1640.5 898 1619.5 922 C 1598.5 946 1570.5 958 1537.5 958 C 1500.5 958 1470.5 952 1447.5 941 L 1447.5 907 C 1458.5 914 1472.5 919 1489.5 922 C 1505.5 926 1521.5 928 1537.5 928 C 1561.5 928 1581.5 919 1596.5 900 C 1612.5 882 1620.5 859 1620.5 831 C 1620.5 805 1614.5 785 1603.5 770 C 1592.5 754 1571.5 739 1541.5 724 C 1516.5 712 1498.5 700 1486.5 688 C 1474.5 677 1466.5 664 1460.5 648 C 1454.5 633 1451.5 615 1451.5 594 C 1451.5 571 1456.5 550 1465.5 532 C 1475.5 514 1488.5 500 1505.5 490 C 1522.5 480 1540.5 476 1560.5 476 C 1578.5 476 1595.5 477 1610.5 482 C 1625.5 486 1636.5 490 1645.5 495 L 1633.5 525 C 1609.5 513 1585.5 506 1560.5 506 C 1537.5 506 1518.5 514 1504.5 530 C 1489.5 546 1482.5 567 1482.5 593 C 1482.5 619 1487.5 639 1498.5 654 C 1508.5 669 1529.5 684 1560.5 699 C 1591.5 715 1614.5 733 1629.5 753 C 1644.5 774 1651.5 799 1651.5 829 Z "
      fill="rgb(0,0,0)" />
  </g>
</svg>