<?xml version="1.0" encoding="UTF-8" standalone="no"?>
<svg xmlns="http://www.w3.org/2000/svg" xmlns:xlink="http://www.w3.org/1999/xlink" style="isolation:isolate" viewBox="-406 158 2019 705"
  width="2019" height="705">
  <g>
    <g>
      <path d=" M 1069 158 L 1543 158 C 1582 158 1613 189 1613 227 L 1613 701 C 1613 739 1582 770 1543 770 L 1069 770 C 1031 770 1000 739 1000 701 L 1000 227 C 1000 189 1031 158 1069 158 Z  M 1086 179 L 1527 179 C 1563 179 1592 208 1592 243 L 1592 685 C 1592 720 1563 749 1527 749 L 1086 749 C 1050 749 1021 720 1021 685 L 1021 243 C 1021 208 1050 179 1086 179 Z "
        fill-rule="evenodd" fill="rgb(0,56,101)" />
      <path d=" M 1018 205 L 1492 205 C 1530 205 1561 236 1561 274 L 1561 748 C 1561 786 1530 817 1492 817 L 1018 817 C 980 817 949 786 949 748 L 949 274 C 949 236 980 205 1018 205 Z  M 1034 226 L 1476 226 C 1511 226 1540 255 1540 290 L 1540 732 C 1540 767 1511 796 1476 796 L 1034 796 C 999 796 970 767 970 732 L 970 290 C 970 255 999 226 1034 226 Z "
        fill-rule="evenodd" fill="rgb(208,2,27)" />
      <path d="M 1037 250 L 1512 250 C 1550.082 250 1581 280.918 1581 319 L 1581 794 C 1581 832.082 1550.082 863 1512 863 L 1037 863 C 998.918 863 968 832.082 968 794 L 968 319 C 968 280.918 998.918 250 1037 250 Z"
        style="stroke:none;fill:#000000;stroke-miterlimit:10;" />
    </g>
    <g>
      <path d=" M 392 158 L 866 158 C 904 158 935 189 935 227 L 935 701 C 935 739 904 770 866 770 L 392 770 C 354 770 323 739 323 701 L 323 227 C 323 189 354 158 392 158 Z  M 408 179 L 850 179 C 885 179 914 208 914 243 L 914 685 C 914 720 885 749 850 749 L 408 749 C 373 749 344 720 344 685 L 344 243 C 344 208 373 179 408 179 Z "
        fill-rule="evenodd" fill="rgb(0,56,101)" />
      <path d=" M 341 205 L 815 205 C 853 205 884 236 884 274 L 884 748 C 884 786 853 817 815 817 L 341 817 C 303 817 271 786 271 748 L 271 274 C 271 236 303 205 341 205 Z  M 357 226 L 798 226 C 834 226 863 255 863 290 L 863 732 C 863 767 834 796 798 796 L 357 796 C 322 796 292 767 292 732 L 292 290 C 292 255 322 226 357 226 Z "
        fill-rule="evenodd" fill="rgb(208,2,27)" />
      <path d="M 360 250 L 835 250 C 873.082 250 904 280.918 904 319 L 904 794 C 904 832.082 873.082 863 835 863 L 360 863 C 321.918 863 291 832.082 291 794 L 291 319 C 291 280.918 321.918 250 360 250 Z"
        style="stroke:none;fill:#000000;stroke-miterlimit:10;" />
    </g>
    <g>
      <path d=" M -285 158 L 189 158 C 227 158 258 189 258 227 L 258 701 C 258 739 227 770 189 770 L -285 770 C -324 770 -355 739 -355 701 L -355 227 C -355 189 -324 158 -285 158 Z  M -269 179 L 172 179 C 208 179 237 208 237 243 L 237 685 C 237 720 208 749 172 749 L -269 749 C -305 749 -334 720 -334 685 L -334 243 C -334 208 -305 179 -269 179 Z "
        fill-rule="evenodd" fill="rgb(0,56,101)" />
      <path d=" M -337 205 L 137 205 C 175 205 207 236 207 274 L 207 748 C 207 786 175 817 137 817 L -337 817 C -375 817 -406 786 -406 748 L -406 274 C -406 236 -375 205 -337 205 Z  M -320 226 L 121 226 C 156 226 185 255 185 290 L 185 732 C 185 767 156 796 121 796 L -320 796 C -356 796 -385 767 -385 732 L -385 290 C -385 255 -356 226 -320 226 Z "
        fill-rule="evenodd" fill="rgb(208,2,27)" />
      <path d="M -317 250 L 158 250 C 196.082 250 227 280.918 227 319 L 227 794 C 227 832.082 196.082 863 158 863 L -317 863 C -355.082 863 -386 832.082 -386 794 L -386 319 C -386 280.918 -355.082 250 -317 250 Z"
        style="stroke:none;fill:#000000;stroke-miterlimit:10;" />
    </g>
  </g>
</svg>